<svg width="1990" height="655" xmlns="http://www.w3.org/2000/svg" xmlns:xlink="http://www.w3.org/1999/xlink" xml:space="preserve" overflow="hidden"><g transform="translate(-1232 -907)"><g><path d="M2537.72 910 2658 910 2658 1557 2317.28 1557 2315 1534.42 2315 1132.21C2315 1009.49 2414.71 910 2537.72 910Z" fill="#000000" fill-rule="evenodd" fill-opacity="1"/><path d="M2965.68 910 3028.76 910 3085.94 910 3219 910 3219 922.477 3213.06 922.477C3141.87 922.477 3084.16 980.066 3084.16 1051.11L3084.16 1417.68C3084.16 1488.72 3141.87 1546.31 3213.06 1546.31L3219 1546.31 3219 1557 3085.94 1557 3028.76 1557 2745.28 1557 2743 1534.42 2743 1132.21C2743 1009.49 2842.7 910 2965.68 910Z" fill="#000000" fill-rule="evenodd" fill-opacity="1"/><path d="M1233 910 1713 910 1713 1561 1233 1561 1233 1544.09 1240.05 1544.09C1319.07 1544.09 1383.13 1480.06 1383.13 1401.07L1383.13 1065.71C1383.13 986.717 1319.07 922.682 1240.05 922.682L1233 922.682 1233 910Z" fill="#000000" fill-rule="evenodd" fill-opacity="1"/><path d="M1802 910 1923.44 910C2043.54 910 2140.89 1007.21 2140.89 1127.11L2140.89 1248.27 1993.39 1248.27C2079.88 1248.27 2150 1318.27 2150 1404.63L2150 1404.63C2150 1490.99 2079.88 1561 1993.39 1561L1802 1561 1802 1248.27 1802 910Z" fill="#000000" fill-rule="evenodd" fill-opacity="1"/></g></g></svg>