<svg width="651" height="146" xmlns="http://www.w3.org/2000/svg" xmlns:xlink="http://www.w3.org/1999/xlink" xml:space="preserve" overflow="hidden"><g transform="translate(-1874 -1164)"><g><path d="M1875 1165 2016 1165 2016 1194.13 1903.56 1194.13 1903.56 1276.87 2016 1276.87 2016 1306 1875 1306 1875 1165Z" fill="#000000" fill-rule="evenodd" fill-opacity="1"/><path d="M2044 1308 2044 1167 2073.33 1167 2073.33 1279.44 2156.67 1279.44 2156.67 1167 2186 1167 2186 1308 2044 1308Z" fill="#000000" fill-rule="evenodd" fill-opacity="1"/><path d="M2217 1166 2328.08 1166 2328.08 1227.12 2359 1227.12 2359 1309 2217 1309 2217 1166ZM2244.62 1195.98 2244.62 1227.12 2302.89 1227.12 2302.89 1195.98 2244.62 1195.98ZM2244.62 1247.88 2244.62 1279.02 2328.08 1279.02 2328.08 1247.88 2244.62 1247.88Z" fill="#000000" fill-rule="evenodd" fill-opacity="1"/><path d="M2391 1167 2525 1167 2525 1196 2391 1196 2391 1167Z" fill="#000000" fill-rule="evenodd" fill-opacity="1"/><path d="M2391 1279 2525 1279 2525 1308 2391 1308 2391 1279Z" fill="#000000" fill-rule="evenodd" fill-opacity="1"/><path d="M2391 1223 2525 1223 2525 1252 2391 1252 2391 1223Z" fill="#000000" fill-rule="evenodd" fill-opacity="1"/></g></g></svg>