<?xml version="1.0" encoding="UTF-8"?>
<svg width="1371" height="587.0000000000001" xmlns="http://www.w3.org/2000/svg" xmlns:svg="http://www.w3.org/2000/svg" xml:space="preserve">
 <g class="layer">
  <title>Layer 1</title>
  <path d="m0,586.89l0,-94.34l59.36,0l0,18.84l-38.11,0l0,17.28l35.13,0l0,18.85l-35.13,0l0,20.53l38.11,0l0,18.84l-59.36,0zm123.31,-62.05l0,62.05l-20.25,0l0,-94.34l26.06,0l31.03,65.02l0,-65.02l20.26,0l0,94.34l-26.21,0l-30.89,-62.05zm141.54,-13.45l0,75.5l-21.25,0l0,-75.5l-25.36,0l0,-18.84l71.96,0l0,18.84l-25.35,0zm63.05,75.5l0,-94.34l59.36,0l0,18.84l-38.11,0l0,17.28l35.13,0l0,18.85l-35.13,0l0,20.53l38.11,0l0,18.84l-59.36,0zm136.78,-29.32l-12.47,0l0,29.32l-21.25,0l0,-94.34l39.24,0c22.95,0 31.45,9.06 31.45,26.77l0,11.61c0,11.76 -4.25,19.69 -13.74,23.67l22.8,32.29l-25.21,0l-20.82,-29.32zm15.72,-36.27c0,-7.08 -2.69,-9.91 -11.34,-9.91l-16.85,0l0,27.77l16.85,0c9.07,0 11.34,-3.27 11.34,-10.35l0,-7.51zm103.57,-9.91l0,75.5l-21.26,0l0,-75.5l-25.35,0l0,-18.84l71.96,0l0,18.84l-25.35,0zm133.88,75.5l-22.1,0l-5.1,-18.41l-31.59,0l-5.11,18.41l-22.09,0l28.75,-94.34l28.34,0l28.9,94.34zm-53.98,-36.13l21.68,0l-10.77,-39.51l-10.91,39.51zm89.12,36.13l0,-94.34l21.24,0l0,94.34l-21.24,0zm87.11,-62.05l0,62.05l-20.25,0l0,-94.34l26.06,0l31.03,65.02l0,-65.02l20.25,0l0,94.34l-26.2,0l-30.89,-62.05zm120.14,9.65l-1.41,52.4l-20.54,0l3.96,-94.34l21.25,0l22.67,60.07l22.67,-60.07l21.24,0l3.97,94.34l-20.54,0l-1.42,-52.4l-16.43,40.22l-18.98,0l-16.44,-40.22zm117.84,52.4l0,-94.34l59.36,0l0,18.84l-38.11,0l0,17.28l35.13,0l0,18.85l-35.13,0l0,20.53l38.11,0l0,18.84l-59.36,0zm123.32,-62.05l0,62.05l-20.26,0l0,-94.34l26.06,0l31.03,65.02l0,-65.02l20.26,0l0,94.34l-26.21,0l-30.88,-62.05zm144.31,-13.45l0,75.5l-21.26,0l0,-75.5l-25.35,0l0,-18.84l71.96,0l0,18.84l-25.35,0zm-1052.66,-511.39l0,216.3l216.3,-216.3l-216.3,0zm381.45,0l-381.45,381.42l173.24,0l208.23,-208.27l207.85,208.27l173.51,0l0,-206.04l-113.04,0l0,96.07l-159.39,-159.35l272.43,0l0,-112.1l-381.38,0z" fill="#262729" id="svg_1"/>
 </g>
</svg>